<?xml version="1.0" standalone="no"?><!DOCTYPE svg PUBLIC "-//W3C//DTD SVG 1.1//EN" "http://www.w3.org/Graphics/SVG/1.1/DTD/svg11.dtd"><svg t="1716468554734" class="icon" viewBox="0 0 1024 1024" version="1.1" xmlns="http://www.w3.org/2000/svg" p-id="7579" xmlns:xlink="http://www.w3.org/1999/xlink" width="200" height="200"><path d="M480.00001 160.00027a319.0399 319.0399 0 0 1 226.271929 93.727971 31.99999 31.99999 0 1 1-45.247986 45.247986 255.99992 255.99992 0 0 0-408.639872 298.335906l4.095999 7.583998c4.831998 8.639997 5.983998 13.567996 4.511998 25.407992l-1.183999 7.999998-3.839999 21.535993-11.807996 57.663982 76.927976-11.487997 10.815996-1.343999 8.319998-0.864c9.663997-0.768 14.399996 0 20.671993 2.943999l2.431999 1.184A254.49592 254.49592 0 0 0 480.00001 736.00009a253.823921 253.823921 0 0 0 142.175956-43.071987 31.99999 31.99999 0 1 1 35.583988 53.183984A319.2639 319.2639 0 0 1 480.00001 800.00007a319.2319 319.2319 0 0 1-136.735957-30.62399l-2.432-1.184-4.735998 0.48-29.951991 4.159998-58.303981 8.799998-12.351997 1.599999-10.431996 1.088a158.335951 158.335951 0 0 1-8.447998 0.512 67.199979 67.199979 0 0 1-9.535997-0.256c-8.095997-0.864-14.399996-2.783999-21.535993-9.791997-7.391998-7.295998-9.439997-14.143996-10.143997-22.463993a61.439981 61.439981 0 0 1 0.032-9.727997c0.192-2.463999 0.48-5.183998 0.864-8.191998l1.503999-9.951996 2.88-15.679995 11.135996-54.399983 3.231999-17.023995 1.408-8.927997-0.896-1.696c-1.663999-3.199999-3.263999-6.399998-4.799999-9.663997l-4.447998-9.791997A319.0399 319.0399 0 0 1 160.00011 480.00017C160.00011 303.264225 303.264065 160.00027 480.00001 160.00027z m287.99991 223.99993v95.99997h95.99997v63.99998h-95.99997v95.99997h-63.99998v-95.99997h-95.99997v-63.99998h95.99997V384.0002h63.99998z" fill="#8A8F99" p-id="7580"></path></svg>