<?xml version="1.0" standalone="no"?><!DOCTYPE svg PUBLIC "-//W3C//DTD SVG 1.1//EN" "http://www.w3.org/Graphics/SVG/1.1/DTD/svg11.dtd"><svg t="1716468439073" class="icon" viewBox="0 0 1024 1024" version="1.1" xmlns="http://www.w3.org/2000/svg" p-id="6573" xmlns:xlink="http://www.w3.org/1999/xlink" width="200" height="200"><path d="M507.904 524.288c-77.824-34.816-133.12-114.688-133.12-206.848 0-124.928 100.352-225.28 225.28-225.28s225.28 100.352 225.28 225.28c0 92.16-55.296 169.984-133.12 206.848 176.128 40.96 307.2 200.704 307.2 389.12 0 12.288-8.192 20.48-20.48 20.48s-20.48-8.192-20.48-20.48c0-198.656-159.744-358.4-358.4-358.4s-358.4 159.744-358.4 358.4c0 12.288-8.192 20.48-20.48 20.48s-20.48-8.192-20.48-20.48c0-190.464 131.072-348.16 307.2-389.12z m-118.784-6.144v2.048c0 12.288-8.192 20.48-20.48 20.48-169.984 0-307.2 137.216-307.2 307.2 0 12.288-8.192 20.48-20.48 20.48s-20.48-8.192-20.48-20.48c0-159.744 108.544-294.912 253.952-335.872-65.536-34.816-110.592-102.4-110.592-182.272 0-112.64 92.16-204.8 204.8-204.8 12.288 0 20.48 8.192 20.48 20.48s-8.192 20.48-20.48 20.48c-90.112 0-163.84 73.728-163.84 163.84s73.728 163.84 163.84 163.84c12.288 0 20.48 8.192 20.48 20.48v4.096z m208.896-16.384c102.4 0 184.32-81.92 184.32-184.32s-81.92-184.32-184.32-184.32-184.32 81.92-184.32 184.32 83.968 184.32 184.32 184.32z" fill="#272636" p-id="6574"></path></svg>